<svg width="65" height="65" viewBox="0 0 65 65" fill="none" xmlns="http://www.w3.org/2000/svg">
<path d="M32.5002 52.3425C32.7798 52.3423 33.0556 52.2775 33.306 52.1529L49.556 44.0464C49.8563 43.8965 50.1089 43.6659 50.2855 43.3805C50.4621 43.0951 50.5557 42.7661 50.5558 42.4304V22.5693C50.5549 22.4076 50.5323 22.2466 50.4884 22.0909C50.4742 22.0394 50.448 21.9934 50.4293 21.9437C50.3327 21.699 50.19 21.4752 50.0088 21.2846C49.9058 21.2009 49.8028 21.1172 49.6998 21.0335C49.6747 21.018 49.6462 21.0117 49.6206 20.9976C49.5974 20.9848 49.5799 20.9651 49.5561 20.9533L33.3061 12.8468C33.0557 12.7224 32.7799 12.6577 32.5003 12.6577C32.2207 12.6577 31.9449 12.7224 31.6945 12.8468L15.4445 20.9533C15.4204 20.9653 15.4025 20.9853 15.3792 20.9983C15.3538 21.0122 15.3256 21.0183 15.3008 21.0335C15.1978 21.1172 15.0948 21.2009 14.9918 21.2846C14.7984 21.4654 14.6537 21.6921 14.5713 21.9437C14.5526 21.9935 14.5264 22.0394 14.5122 22.0909C14.4683 22.2466 14.4456 22.4076 14.4448 22.5693V42.4304C14.4449 42.7661 14.5385 43.0951 14.7151 43.3805C14.8917 43.6659 15.1443 43.8965 15.4446 44.0464L31.6946 52.1529C31.9449 52.2774 32.2206 52.3423 32.5002 52.3425ZM46.9446 41.3135L34.3058 47.6182V31.7939L46.9446 25.4884V41.3135ZM32.5002 16.4809L44.7053 22.5693L32.5002 28.6587L20.2951 22.5693L32.5002 16.4809ZM18.0558 25.4884L30.6946 31.7939V47.6182L18.0558 41.3135V25.4884Z" fill="white"/>
<path d="M56.676 10.8333H57.7777C58.0153 10.8341 58.2507 10.788 58.4705 10.6976C58.6902 10.6072 58.89 10.4743 59.0583 10.3066C59.2266 10.1388 59.3601 9.93954 59.4513 9.72008C59.5424 9.50063 59.5893 9.26534 59.5893 9.02773C59.5893 8.79011 59.5424 8.55482 59.4513 8.33537C59.3601 8.11591 59.2266 7.9166 59.0583 7.74886C58.89 7.58112 58.6902 7.44825 58.4705 7.35787C58.2507 7.26749 58.0153 7.22138 57.7777 7.22218H52.361C52.2679 7.23311 52.1759 7.25168 52.0858 7.27771C52.0528 7.28202 52.0211 7.29116 51.9883 7.29744C51.8441 7.32207 51.7035 7.36449 51.5698 7.42374L51.5569 7.42758C51.3893 7.50764 51.2351 7.61322 51.0998 7.74055C51.0844 7.75567 51.0734 7.7734 51.0586 7.78906C50.8869 7.95655 50.7505 8.15674 50.6574 8.37781C50.5643 8.59888 50.5165 8.83635 50.5167 9.07622L50.5554 14.4576C50.5588 14.9342 50.7506 15.3901 51.0888 15.7259C51.4271 16.0617 51.8844 16.2501 52.361 16.2499H52.3742C52.8531 16.2464 53.3109 16.0528 53.647 15.7117C53.9831 15.3706 54.17 14.91 54.1666 14.4312L54.1586 13.3812C57.8384 17.5502 60.2367 22.6926 61.0658 28.1912C61.895 33.6897 61.1196 39.3107 58.8328 44.3795C56.5461 49.4482 52.8451 53.7493 48.1741 56.7664C43.5031 59.7836 38.0606 61.3886 32.4999 61.3888C32.021 61.3888 31.5618 61.5791 31.2232 61.9177C30.8846 62.2563 30.6943 62.7155 30.6943 63.1944C30.6943 63.6733 30.8846 64.1325 31.2232 64.4711C31.5618 64.8097 32.021 64.9999 32.4999 64.9999C38.777 65.0074 44.9216 63.1948 50.1896 59.7816C55.4576 56.3685 59.623 51.5011 62.1814 45.769C64.7397 40.037 65.5813 33.6861 64.6042 27.4856C63.6271 21.285 60.8732 15.5007 56.676 10.8333Z" fill="white"/>
<path d="M14.4445 50.5424C14.4411 50.0658 14.2494 49.6098 13.9111 49.274C13.5729 48.9383 13.1155 48.7499 12.6389 48.75H12.6257C12.1469 48.7536 11.689 48.9472 11.3529 49.2883C11.0168 49.6293 10.8299 50.09 10.8334 50.5688L10.8413 51.6188C7.16158 47.4498 4.76322 42.3073 3.93409 36.8088C3.10497 31.3103 3.88033 25.6893 6.1671 20.6205C8.45387 15.5518 12.1549 11.2507 16.8259 8.23354C21.4969 5.21638 26.9393 3.61136 32.5 3.61114C32.9789 3.61114 33.4382 3.42091 33.7768 3.0823C34.1154 2.7437 34.3056 2.28444 34.3056 1.80558C34.3056 1.32672 34.1154 0.867466 33.7768 0.528859C33.4382 0.190251 32.9789 2.30991e-05 32.5 2.30991e-05C26.223 -0.00746369 20.0784 1.80514 14.8104 5.21833C9.54235 8.63152 5.37694 13.4989 2.81856 19.2309C0.260189 24.963 -0.581396 31.3138 0.395727 37.5144C1.37285 43.715 4.12677 49.4992 8.32396 54.1667H7.22227C6.98466 54.1659 6.74922 54.212 6.52946 54.3024C6.3097 54.3928 6.10994 54.5256 5.94164 54.6934C5.77333 54.8611 5.6398 55.0604 5.54868 55.2799C5.45756 55.4993 5.41066 55.7346 5.41066 55.9722C5.41066 56.2099 5.45756 56.4451 5.54868 56.6646C5.6398 56.8841 5.77333 57.0834 5.94164 57.2511C6.10994 57.4188 6.3097 57.5517 6.52946 57.6421C6.74922 57.7325 6.98466 57.7786 7.22227 57.7778H12.6389C12.9157 57.7731 13.1875 57.7036 13.4324 57.5747L13.443 57.5723C13.6106 57.4923 13.7648 57.3867 13.9 57.2594C13.9154 57.2443 13.9264 57.2265 13.9412 57.2109C14.1129 57.0434 14.2493 56.8432 14.3424 56.6221C14.4355 56.4011 14.4834 56.1636 14.4832 55.9237L14.4445 50.5424Z" fill="white"/>
</svg>
