<svg width="75" height="75" viewBox="0 0 75 75" fill="none" xmlns="http://www.w3.org/2000/svg">
<path d="M43.4722 75C42.6944 75 42.0833 74.3889 42.0833 73.6111C42.0833 70.9167 39.2222 68.0555 36.5278 68.0555C35.75 68.0555 35.1389 67.4444 35.1389 66.6667C35.1389 65.8889 35.75 65.2778 36.5278 65.2778C39.2222 65.2778 42.0833 62.4167 42.0833 59.7222C42.0833 58.9444 42.6944 58.3333 43.4722 58.3333C44.25 58.3333 44.8611 58.9444 44.8611 59.7222C44.8611 62.4167 47.7222 65.2778 50.4167 65.2778C51.1944 65.2778 51.8056 65.8889 51.8056 66.6667C51.8056 67.4444 51.1944 68.0555 50.4167 68.0555C47.7222 68.0555 44.8611 70.9167 44.8611 73.6111C44.8611 74.3889 44.25 75 43.4722 75ZM40.8333 66.6667C41.8889 67.3611 42.8056 68.2778 43.5 69.3333C44.1944 68.2778 45.1111 67.3611 46.1667 66.6667C45.1111 65.9722 44.1944 65.0556 43.5 64C42.7778 65.0556 41.8611 65.9722 40.8333 66.6667ZM62.5 63.8889C61.7222 63.8889 61.1111 63.2778 61.1111 62.5C61.1111 57.6944 56.1944 52.7778 51.3889 52.7778C50.6111 52.7778 50 52.1667 50 51.3889C50 50.6111 50.6111 50 51.3889 50C56.1944 50 61.1111 45.0833 61.1111 40.2778C61.1111 39.5 61.7222 38.8889 62.5 38.8889C63.2778 38.8889 63.8889 39.5 63.8889 40.2778C63.8889 45.0833 68.8055 50 73.6111 50C74.3889 50 75 50.6111 75 51.3889C75 52.1667 74.3889 52.7778 73.6111 52.7778C68.8055 52.7778 63.8889 57.6944 63.8889 62.5C63.8889 63.2778 63.2778 63.8889 62.5 63.8889ZM56.6389 51.3889C59.0833 52.6944 61.1944 54.8056 62.5 57.25C63.8056 54.8056 65.9167 52.6944 68.3611 51.3889C65.9167 50.0833 63.8056 47.9722 62.5 45.5278C61.1944 47.9722 59.0833 50.0833 56.6389 51.3889ZM26.3889 63.8889C25.6111 63.8889 25 63.2778 25 62.5C25 50.8056 13.0833 38.8889 1.38889 38.8889C0.611111 38.8889 0 38.2778 0 37.5C0 36.7222 0.611111 36.1111 1.38889 36.1111C13.0833 36.1111 25 24.1944 25 12.5C25 11.7222 25.6111 11.1111 26.3889 11.1111C27.1667 11.1111 27.7778 11.7222 27.7778 12.5C27.7778 24.1944 39.6944 36.1111 51.3889 36.1111C52.1667 36.1111 52.7778 36.7222 52.7778 37.5C52.7778 38.2778 52.1667 38.8889 51.3889 38.8889C39.6944 38.8889 27.7778 50.8056 27.7778 62.5C27.7778 63.2778 27.1667 63.8889 26.3889 63.8889ZM9.02778 37.5C16.8056 40.3056 23.5833 47.0556 26.3889 54.8611C29.1944 47.0833 35.9444 40.3056 43.75 37.5C35.9722 34.6944 29.1944 27.9444 26.3889 20.1389C23.5833 27.9444 16.8333 34.6944 9.02778 37.5ZM54.5833 30.5556C53.8056 30.5556 53.1944 29.9444 53.1944 29.1667C53.1944 22.9722 46.8889 16.6667 40.6944 16.6667C39.9167 16.6667 39.3056 16.0556 39.3056 15.2778C39.3056 14.5 39.9167 13.8889 40.6944 13.8889C46.8889 13.8889 53.1944 7.58333 53.1944 1.38889C53.1944 0.611111 53.8056 0 54.5833 0C55.3611 0 55.9722 0.611111 55.9722 1.38889C55.9722 7.58333 62.2778 13.8889 68.4722 13.8889C69.25 13.8889 69.8611 14.5 69.8611 15.2778C69.8611 16.0556 69.25 16.6667 68.4722 16.6667C62.2778 16.6667 55.9722 22.9722 55.9722 29.1667C55.9722 29.9444 55.3611 30.5556 54.5833 30.5556ZM46.5278 15.2778C49.9722 16.9167 52.9444 19.8889 54.5833 23.3333C56.2222 19.8889 59.1944 16.9167 62.6389 15.2778C59.1944 13.6389 56.2222 10.6667 54.5833 7.22222C52.9444 10.6667 49.9722 13.6389 46.5278 15.2778Z" fill="black"/>
</svg>
