<svg width="60" height="66" viewBox="0 0 60 66" fill="none" xmlns="http://www.w3.org/2000/svg">
<path fill-rule="evenodd" clip-rule="evenodd" d="M1.41304 32.0268H7.06522C7.84522 32.0268 8.47826 31.3937 8.47826 30.6137C8.47826 29.8337 7.84522 29.2007 7.06522 29.2007H1.41304C0.633044 29.2007 0 29.8337 0 30.6137C0 31.3937 0.633044 32.0268 1.41304 32.0268Z" fill="white"/>
<path fill-rule="evenodd" clip-rule="evenodd" d="M5.61805 45.8621L10.7432 42.6144C11.4505 42.1663 11.7853 41.3959 11.4906 40.895C11.1959 40.394 10.3827 40.3511 9.67546 40.7993L4.55033 44.047C3.84306 44.4951 3.50821 45.2655 3.8029 45.7664C4.0976 46.2674 4.91078 46.3103 5.61805 45.8621Z" fill="white"/>
<path fill-rule="evenodd" clip-rule="evenodd" d="M54.7972 44.0475L49.672 40.7999C48.9648 40.3517 48.1516 40.3946 47.8569 40.8955C47.5622 41.3965 47.8971 42.1668 48.6043 42.615L53.7295 45.8626C54.4367 46.3108 55.2499 46.268 55.5446 45.767C55.8393 45.266 55.5044 44.4957 54.7972 44.0475Z" fill="white"/>
<path fill-rule="evenodd" clip-rule="evenodd" d="M52.2827 32.0268H57.9348C58.7148 32.0268 59.3479 31.3937 59.3479 30.6137C59.3479 29.8337 58.7148 29.2007 57.9348 29.2007H52.2827C51.5027 29.2007 50.8696 29.8337 50.8696 30.6137C50.8696 31.3937 51.5027 32.0268 52.2827 32.0268Z" fill="white"/>
<path fill-rule="evenodd" clip-rule="evenodd" d="M49.6727 20.4275L54.7979 17.1799C55.5051 16.7317 55.84 15.9614 55.5453 15.4604C55.2506 14.9594 54.4374 14.9166 53.7302 15.3647L48.605 18.6124C47.8977 19.0606 47.5629 19.8309 47.8576 20.3319C48.1523 20.8328 48.9655 20.8757 49.6727 20.4275Z" fill="white"/>
<path fill-rule="evenodd" clip-rule="evenodd" d="M42.6387 11.842L45.1153 7.35369C45.4571 6.7343 45.0688 5.77847 44.2486 5.22014C43.4284 4.66181 42.4853 4.71136 42.1436 5.33075L39.667 9.81908C39.3252 10.4385 39.7135 11.3943 40.5337 11.9526C41.3539 12.511 42.297 12.4614 42.6387 11.842Z" fill="white"/>
<path fill-rule="evenodd" clip-rule="evenodd" d="M31.0868 8.00493V2.35275C31.0868 1.57275 30.4538 0.939708 29.6738 0.939708C28.8938 0.939708 28.2607 1.57275 28.2607 2.35275V8.00493C28.2607 8.78493 28.8938 9.41797 29.6738 9.41797C30.4538 9.41797 31.0868 8.78493 31.0868 8.00493Z" fill="white"/>
<path fill-rule="evenodd" clip-rule="evenodd" d="M19.6802 9.81885L17.2037 5.33052C16.8619 4.71113 15.9188 4.66158 15.0986 5.21991C14.2784 5.77824 13.8902 6.73407 14.2319 7.35346L16.7085 11.8418C17.0503 12.4612 17.9933 12.5107 18.8135 11.9524C19.6337 11.3941 20.022 10.4382 19.6802 9.81885Z" fill="white"/>
<path fill-rule="evenodd" clip-rule="evenodd" d="M10.743 18.613L5.61784 15.3653C4.91058 14.9171 4.09739 14.96 3.8027 15.461C3.50801 15.9619 3.84285 16.7322 4.55012 17.1804L9.67526 20.4281C10.3825 20.8763 11.1957 20.8334 11.4904 20.3324C11.7851 19.8315 11.4503 19.0611 10.743 18.613Z" fill="white"/>
<path fill-rule="evenodd" clip-rule="evenodd" d="M19.7825 48.2146V50.3963C19.7825 52.7377 21.6802 54.6354 24.0216 54.6354H35.3259C37.6674 54.6354 39.5651 52.7377 39.5651 50.3963C39.5651 49.711 39.5651 48.9734 39.599 48.2838C39.6004 48.2612 39.6004 48.2372 39.6004 48.2131C39.6004 46.9372 40.1797 45.7304 41.1759 44.9335L41.1788 44.9306C45.3642 41.5634 48.0433 36.3987 48.0433 30.6137C48.0433 20.4751 39.8123 12.2441 29.6738 12.2441C19.5352 12.2441 11.3042 20.4751 11.3042 30.6137C11.3042 36.4001 13.9848 41.5662 18.1942 44.9066C19.1975 45.7107 19.7825 46.9273 19.7825 48.2146ZM22.6085 50.3963V48.2131C22.6085 46.0696 21.6335 44.0404 19.9591 42.7009L19.9548 42.6966C16.3954 39.8734 14.1303 35.5057 14.1303 30.6137C14.1303 22.0351 21.0952 15.0702 29.6738 15.0702C38.2523 15.0702 45.2172 22.0351 45.2172 30.6137C45.2172 35.5099 42.9479 39.879 39.4068 42.7292C37.7493 44.0574 36.7799 46.0681 36.7743 48.1948C36.739 48.8914 36.739 49.6714 36.739 50.3963C36.739 51.1763 36.1059 51.8094 35.3259 51.8094H24.0216C23.2416 51.8094 22.6085 51.1763 22.6085 50.3963Z" fill="white"/>
<path fill-rule="evenodd" clip-rule="evenodd" d="M21.1958 60.2878H38.1523C38.9323 60.2878 39.5653 59.6547 39.5653 58.8747C39.5653 58.0947 38.9323 57.4617 38.1523 57.4617H21.1958C20.4158 57.4617 19.7827 58.0947 19.7827 58.8747C19.7827 59.6547 20.4158 60.2878 21.1958 60.2878Z" fill="white"/>
<path fill-rule="evenodd" clip-rule="evenodd" d="M24.0219 65.9399H35.3263C36.1063 65.9399 36.7393 65.3068 36.7393 64.5268C36.7393 63.7468 36.1063 63.1138 35.3263 63.1138H24.0219C23.2419 63.1138 22.6089 63.7468 22.6089 64.5268C22.6089 65.3068 23.2419 65.9399 24.0219 65.9399Z" fill="white"/>
</svg>
