<svg width="62" height="65" viewBox="0 0 62 65" fill="none" xmlns="http://www.w3.org/2000/svg">
<path d="M43.5072 23.454L51.9747 13.1862C52.5938 12.4215 52.8843 11.4425 52.7826 10.4639C52.6809 9.48526 52.1952 8.58693 51.4321 7.96592L47.6423 4.842C46.8817 4.21913 45.9053 3.92304 44.9269 4.01857C43.9485 4.1141 43.0478 4.59347 42.422 5.35169L0.841019 55.8277C0.218153 56.5882 -0.0779335 57.5646 0.0175972 58.5431C0.113128 59.5215 0.592491 60.4222 1.35071 61.0479L5.14874 64.1718C5.81218 64.7124 6.64415 65.0033 7.4999 64.9939C7.62034 65.0019 7.74118 65.0019 7.86162 64.9939C8.34699 64.9493 8.81864 64.8086 9.24911 64.5799C9.67957 64.3513 10.0603 64.0393 10.369 63.6621L43.3346 23.6677L43.4332 23.5773L43.5072 23.454ZM44.9952 7.43978C45.0342 7.3922 45.0831 7.35361 45.1384 7.32665C45.1937 7.2997 45.2542 7.285 45.3158 7.28359C45.4149 7.28402 45.5108 7.31889 45.5871 7.38224L49.3769 10.5062C49.4197 10.5411 49.4551 10.5842 49.4812 10.633C49.5072 10.6817 49.5234 10.7351 49.5288 10.7901C49.5341 10.8451 49.5285 10.9007 49.5123 10.9535C49.4961 11.0064 49.4697 11.0555 49.4344 11.0981L41.9288 20.2068L37.4567 16.5567L44.9952 7.43978ZM7.86162 61.574C7.7888 61.6592 7.68548 61.7123 7.57389 61.722C7.51969 61.7288 7.46467 61.7243 7.41231 61.7087C7.35995 61.6931 7.3114 61.6669 7.26972 61.6316L3.47169 58.5077C3.38845 58.4368 3.33549 58.3368 3.32371 58.2282C3.31722 58.1727 3.32188 58.1165 3.33741 58.0628C3.35293 58.0092 3.37902 57.9592 3.41414 57.9158L35.3932 19.0887L39.8325 22.747L7.86162 61.574Z" fill="black"/>
<path d="M14.6108 9.82391C14.9275 10.1125 15.3414 10.2711 15.7699 10.2678H15.885H16.1974C17.614 10.2722 18.9715 10.8363 19.974 11.8372C20.9765 12.8381 21.5427 14.1948 21.5492 15.6114C21.5492 16.0474 21.7224 16.4656 22.0307 16.774C22.3391 17.0823 22.7573 17.2555 23.1933 17.2555C23.6294 17.2555 24.0476 17.0823 24.3559 16.774C24.6643 16.4656 24.8375 16.0474 24.8375 15.6114C24.8454 14.2685 25.3563 12.9774 26.2694 11.9928C27.1826 11.0081 28.4316 10.4015 29.77 10.2925C30.1693 10.2651 30.545 10.0931 30.8265 9.80854C31.108 9.52401 31.276 9.14656 31.2991 8.74698V8.50857C31.276 8.10899 31.108 7.73154 30.8265 7.44701C30.545 7.16248 30.1693 6.99041 29.77 6.96305C28.4316 6.85408 27.1826 6.24743 26.2694 5.26278C25.3563 4.27814 24.8454 2.98702 24.8375 1.64417C24.8375 1.20811 24.6643 0.789907 24.3559 0.481565C24.0476 0.173224 23.6294 0 23.1933 0C22.7573 0 22.3391 0.173224 22.0307 0.481565C21.7224 0.789907 21.5492 1.20811 21.5492 1.64417C21.5427 3.06003 20.9762 4.41579 19.9735 5.41542C18.9708 6.41505 17.6133 6.97734 16.1974 6.97949H15.811C15.5917 6.96391 15.3715 6.99246 15.1634 7.06346C14.9554 7.13447 14.7637 7.24648 14.5996 7.39287C14.4356 7.53927 14.3026 7.71708 14.2085 7.91577C14.1144 8.11447 14.0611 8.33002 14.0518 8.54968V8.65655C14.0611 8.87883 14.1155 9.0969 14.2116 9.29755C14.3077 9.4982 14.4435 9.67727 14.6108 9.82391ZM23.2016 6.65066C23.7367 7.39689 24.3859 8.05436 25.1252 8.599C24.3771 9.14165 23.7195 9.79922 23.1769 10.5473C22.6342 9.79922 21.9767 9.14165 21.2286 8.599C21.9855 8.05838 22.6515 7.4007 23.2016 6.65066Z" fill="black"/>
<path d="M61.7576 24.9256C61.7345 24.526 61.5665 24.1485 61.285 23.864C61.0034 23.5795 60.6278 23.4074 60.2285 23.38C58.8901 23.2711 57.6411 22.6644 56.7279 21.6798C55.8148 20.6951 55.3039 19.404 55.296 18.0612C55.296 17.6251 55.1228 17.2069 54.8144 16.8986C54.5061 16.5902 54.0879 16.417 53.6518 16.417C53.2158 16.417 52.7976 16.5902 52.4892 16.8986C52.1809 17.2069 52.0077 17.6251 52.0077 18.0612C52.0011 19.477 51.4347 20.8328 50.432 21.8324C49.4293 22.832 48.0718 23.3943 46.6559 23.3965H46.2695C46.0502 23.3809 45.83 23.4095 45.6219 23.4805C45.4139 23.5515 45.2221 23.6635 45.0581 23.8099C44.8941 23.9563 44.7611 24.1341 44.667 24.3328C44.5729 24.5315 44.5196 24.747 44.5103 24.9667V25.0982C44.5151 25.3261 44.5674 25.5505 44.6636 25.7571C44.7598 25.9637 44.898 26.1481 45.0693 26.2984C45.386 26.5871 45.7999 26.7456 46.2284 26.7424H46.3435H46.6559C48.0725 26.7467 49.43 27.3108 50.4325 28.3117C51.435 29.3127 52.0012 30.6693 52.0077 32.0859C52.0077 32.522 52.1809 32.9402 52.4892 33.2485C52.7976 33.5569 53.2158 33.7301 53.6518 33.7301C54.0879 33.7301 54.5061 33.5569 54.8144 33.2485C55.1228 32.9402 55.296 32.522 55.296 32.0859C55.3039 30.7431 55.8148 29.4519 56.7279 28.4673C57.6411 27.4827 58.8901 26.876 60.2285 26.767C60.6278 26.7397 61.0034 26.5676 61.285 26.2831C61.5665 25.9985 61.7345 25.6211 61.7576 25.2215V24.9831V24.9256ZM53.6189 26.989C53.0763 26.2409 52.4187 25.5833 51.6706 25.0407C52.4187 24.498 53.0763 23.8404 53.6189 23.0923C54.1541 23.8385 54.8033 24.496 55.5426 25.0407C54.8033 25.5853 54.1541 26.2428 53.6189 26.989Z" fill="black"/>
</svg>
